<svg width="499" height="115" viewBox="0 0 499 115" fill="none" xmlns="http://www.w3.org/2000/svg">
<path d="M83.3683 24.4698C78.4651 15.0405 68.1425 8.09265 52.4006 8.09265C22.5973 8.09265 7.94403 33.8991 7.94403 59.2093C7.94403 86.7527 26.0085 107.1 56.6631 107.1C96.3289 107.1 131.817 77.1411 139.956 33.3408C141.335 25.9155 143.18 18.3311 144.449 10.8222" stroke="white" style="stroke:white;stroke-opacity:1;" stroke-width="14.8883" stroke-linecap="round"/>
<path d="M144.449 10.8223C141.597 27.6958 138.971 41.5915 137.326 53.9985C136.395 62.1871 135.95 69.135 136.002 76.0829C136.135 93.9489 143.17 106.108 160.371 106.108C184.495 106.108 208.024 79.2434 216.425 49.7907" stroke="white" style="stroke:white;stroke-opacity:1;" stroke-width="14.8883" stroke-linecap="round"/>
<path d="M294.684 27.5896C289.819 16.3946 279.479 8.837 263.019 8.837C235.724 8.837 215.211 36.1323 213.864 65.4127C212.69 92.2117 225.056 107.276 242.67 107.1C267.67 106.85 286.047 82.2941 294.25 30.3369C295.262 23.9265 296.311 17.2325 297.323 10.8221" stroke="white" style="stroke:white;stroke-opacity:1;" stroke-width="14.8883" stroke-linecap="round"/>
<path d="M297.323 10.8221C296.298 17.3246 295.274 23.8271 294.249 30.3295C289.768 58.7694 287.7 69.9895 287.922 77.3233C288.44 94.4449 294.598 106.107 310.877 106.107C333.376 106.107 351.779 79.3161 361.079 52.8836C370.465 26.2067 382.128 9.58141 406.445 9.58141C426.545 9.58141 442.425 24.4697 442.425 52.5094C442.425 83.5268 422.302 106.852 396.872 107.1C374.493 107.348 359.795 89.234 361.284 61.9387C363.021 31.6658 381.383 9.58141 405.453 9.58141C419.349 9.58141 431.02 15.7583 440.192 22.4846C465.059 40.6254 484.219 29.4148 491.557 11.4779" stroke="white" style="stroke:white;stroke-opacity:1;" stroke-width="14.8883" stroke-linecap="round"/>
</svg>
