<svg width="561" height="201" viewBox="0 0 561 201" fill="none" xmlns="http://www.w3.org/2000/svg">
<path d="M8.19238 170.042C35.6868 153.857 59.4736 133.55 86.0141 97.6177C104.641 72.3991 113.752 49.7249 114.25 31.6564C114.498 18.2574 108.046 8.09264 95.8876 8.09264C82.4881 8.09264 74.0513 18.2574 68.8404 41.5902C63.1332 67.2331 58.9149 96.6574 48.2449 191.01" stroke="white" style="stroke:white;stroke-opacity:1;" stroke-width="14.8883" stroke-linecap="round"/>
<path d="M49.2905 181.789C54.5546 135.515 75.54 98.7021 102.091 98.7021C117.972 98.7021 128.065 111.357 125.199 129.471C123.586 140.141 120.671 152.548 119.006 164.707C116.98 180.092 122.767 192.002 140.661 192.002C165.918 192.002 181.818 167.479 188.698 138.441" stroke="white" style="stroke:white;stroke-opacity:1;" stroke-width="14.8883" stroke-linecap="round"/>
<path d="M234.101 94.98C209.279 96.9865 190.711 118.024 187.203 146.841C183.977 173.144 198.617 192.995 221.942 192.995C250.23 192.995 268.592 168.677 269.833 138.404C270.825 109.372 256.93 94.7318 238.071 94.7318C223.183 94.7318 215.242 105.898 215.739 119.546C216.223 138.206 230.217 159.158 259.578 161.835C300.303 165.548 356.002 135.439 378.492 76.2416C384.979 59.1671 387.451 43.0606 387.451 31.8053C387.451 18.4598 383.232 8.21234 371.322 8.21234C359.659 8.21234 351.967 17.2682 345.019 31.567C336.879 48.1508 330.857 72.0703 328.394 99.109C322.19 166.955 336.086 192.002 365.814 192.002C395.941 192.002 415.863 165.889 424.478 135.685" stroke="white" style="stroke:white;stroke-opacity:1;" stroke-width="14.8883" stroke-linecap="round"/>
<path d="M502.736 113.484C497.872 102.289 487.532 94.7318 471.072 94.7318C443.777 94.7318 423.264 122.027 421.917 151.307C420.743 178.106 433.109 193.171 450.722 192.995C475.723 192.745 494.1 168.189 502.303 116.232C503.315 109.821 504.364 103.127 505.376 96.7169" stroke="white" style="stroke:white;stroke-opacity:1;" stroke-width="14.8883" stroke-linecap="round"/>
<path d="M505.375 96.717C504.351 103.219 503.326 109.722 502.302 116.224C497.82 144.664 495.753 155.884 495.975 163.218C496.493 180.34 502.65 192.002 518.035 192.002C537.39 192.002 548.245 178.851 553.456 164.459" stroke="white" style="stroke:white;stroke-opacity:1;" stroke-width="14.8883" stroke-linecap="round"/>
</svg>
